<svg width="380" height="354" viewBox="0 0 380 354" fill="none" xmlns="http://www.w3.org/2000/svg">
<path d="M52.9 104.32C56.02 111.76 80.18 106.32 73.26 97.02C67.22 89 50.4 98.3801 52.9 104.32Z" fill="#001434"/>
<path d="M108.16 31.54C99.2 39 117.16 52.22 121.3 40.4C125.3 53.46 144.96 44.76 138.52 33.88C145.72 37.42 148.64 25.5 145.24 21.44C144.135 20.1804 142.589 19.3928 140.92 19.24C153.7 10.12 132.92 -4.07997 127.2 9.84001C127.2 -7.87997 101.32 3.12001 110.58 16.7C100.48 13.26 97.38 31.56 108.16 31.54ZM106.62 22.76C107.8 18.58 112.78 23.12 115.36 20.52C118.44 17.42 108.76 8.82001 117.36 5.90001C125.96 2.98001 119.54 15.38 125 17.08C131.12 18.96 131.42 4.46001 138.26 9.90001C144.66 14.98 131.54 16.4 133.62 21.42C135.7 26.44 144 20.68 141.62 28.08C140.18 32.42 133.62 24.32 131.4 28.52C129.18 32.72 138.08 37.32 133.4 40.8C129.16 43.98 126.64 40.8 124.94 37.02C119.22 24.02 116.94 50.56 110.4 36.36C109.3 34.04 116.4 33.04 115.38 29.44C114 24.28 104.56 29.96 106.62 22.76Z" fill="#001434"/>
<path d="M44 92.26C45.9034 99.8782 45.8346 107.856 43.8 115.44C24.12 89.26 10.64 120.62 41.42 122.44C33.12 135.14 35.42 134.78 36.26 135.66C39.18 138.42 56.26 115.36 48.56 90.72C64.14 85.64 65.74 55.86 47.56 51.02C32.92 47.12 14.72 62.3 20.62 77.86C24.92 90.3 34.24 94.34 44 92.26ZM25.52 77.26C31.68 67.26 38.38 77.26 42.62 87.7C36.62 89 29.08 86.8 25.54 77.26H25.52ZM55.88 67C56.7908 70.6948 56.425 74.5892 54.8418 78.0498C53.2586 81.5102 50.5512 84.3334 47.16 86.06C41 77.5 45.46 62.18 55.88 67ZM53.68 61.22C47 60.92 41.14 65.54 39.68 73.02C34.9 68.42 30.6 66.04 24.54 70.8C25.2 57 46.4 49 53.68 61.24V61.22Z" fill="#001434"/>
<path d="M59.4201 303.36C52.5801 298.44 43.0001 304.7 44.7601 313.58C42.8169 309.226 40.0531 305.288 36.6201 301.98C34.3001 299.98 31.1201 303.62 33.4801 305.62C36.1829 308.344 38.3893 311.518 40.0001 315C38.4747 315.186 37.0193 315.748 35.7645 316.634C34.5097 317.52 33.4947 318.706 32.8107 320.082C32.1267 321.458 31.7951 322.982 31.8457 324.518C31.8961 326.052 32.3271 327.552 33.1001 328.88C28.8083 325.248 25.0691 321.01 22.0001 316.3C21.7673 315.728 21.3233 315.268 20.7601 315.016C20.1971 314.762 19.5583 314.736 18.9763 314.942C18.3945 315.148 17.9143 315.57 17.6357 316.122C17.3571 316.672 17.3013 317.31 17.4801 317.9C21.6339 324.684 27.1337 330.544 33.6401 335.12C22.1401 340.48 30.2001 354.88 42.5001 353.22C52.7401 353.06 59.4801 348.6 69.4601 346.06C70.0127 345.884 70.4821 345.514 70.7803 345.016C71.0787 344.52 71.1853 343.93 71.0801 343.36C66.4801 331.96 68.5201 309.88 59.4201 303.36ZM55.2401 345.36C25.9401 356.92 23.5201 328.38 57.2401 344.64L55.2401 345.36ZM36.8201 324.32C38.2601 308.98 55.6601 336.32 61.8201 340.68C45.6201 337.98 36.3201 329.78 36.8201 324.28V324.32ZM56.5601 327.54C38.5601 307.28 61.0801 288.28 64.2801 336.26C61.5001 333.3 58.9801 330.24 56.5601 327.5V327.54Z" fill="#001434"/>
<path d="M227.26 73.5C203.76 46.76 182.4 51.98 169.26 60.86C165.756 63.2944 161.511 64.4264 157.26 64.06C150.6 63.8 120.5 59.12 104 103C104 103 90.2 147.46 84.6 155.84C79 164.22 70.6 177.06 59.2 178.34C51.54 179.22 47.68 173.98 41.2 175.5C27.92 178.56 27.2 210.54 42.02 239.3C57.8 270.08 82.98 281.3 106.02 284.86C93.12 239.8 99.4 204.36 142.98 199.26C157.22 171.8 141.96 152.94 135.6 137.26C125.24 112.14 142.2 90.52 163.5 82.2C202.1 67.14 234.62 97.78 240.7 141.3C240.7 141.3 250.78 100.24 227.26 73.5Z" fill="#001434"/>
<path d="M319.06 280.34C297.96 281.68 287.2 269.16 284.04 273.24C282.24 275.58 284.66 276.44 287.48 277.92C284.82 291.7 282.34 304.66 279.82 310.66C276.46 306.8 268.54 306.42 266.34 311.78C262.94 320.16 275.14 324.7 280.98 319.42C286.12 314.78 287.4 305.12 290.48 288.04C297.2 290.42 311.84 293.64 315.3 294.4C314.46 303.226 312.316 311.88 308.94 320.08C305.38 317 302.18 317.18 300.12 318.76C295.88 322 299.32 331.58 306.94 330.44C310.94 329.84 314.26 328.82 317.58 312.58C320.46 298.54 323.76 280.64 319.06 280.34ZM291.44 282.8C291.62 281.86 291.8 280.92 291.98 279.94C299.68 283.17 307.912 284.946 316.26 285.18C316.14 286.48 316.02 287.72 315.9 288.94C307.56 289 296.18 284.72 291.44 282.8Z" fill="#001434"/>
<path d="M264 88.2601C274.26 84.8801 269.5 70.9801 262.7 50.5001C264.058 51.9183 265.784 52.9283 267.686 53.4161C269.588 53.9039 271.588 53.8499 273.46 53.2601C283.2 51.0001 278.44 33.6201 272.7 38.4401C265.18 49.2001 256.7 39.0201 256.3 46.7401C259.24 55.14 263.5 66.86 264.62 72.34C246.7 64.0601 247.06 93.8001 264 88.2601Z" fill="#001434"/>
<path d="M169.26 149C179.26 152.36 194.72 145.84 202.34 138.52C204.22 136.72 202.34 131.98 198.84 134.52C193 138.8 182.98 145.28 169.66 144.16C169.018 144.107 168.382 144.311 167.89 144.727C167.399 145.144 167.093 145.738 167.04 146.38C166.987 147.022 167.191 147.658 167.608 148.15C168.024 148.641 168.618 148.947 169.26 149Z" fill="#001434"/>
<path d="M64.5401 199.8C54.4001 207.28 49.0001 195.16 46.5401 202.54C47.0601 210.98 47.9401 222.86 47.5401 228.14C33.7201 216.24 24.9801 243.26 42.4801 242.4C53.8201 241.84 52.8601 228 51.6801 207.84C58.4201 219.22 73.6801 212.06 67.8601 200.3C67.4789 199.804 66.9199 199.474 66.3009 199.38C65.6819 199.288 65.0507 199.438 64.5401 199.8Z" fill="#001434"/>
<path d="M194.72 104.26C200.168 101.385 206.366 100.247 212.48 101C215.56 101.3 215.68 97.56 212.72 96.54C208.28 95.04 196.42 96.54 192.44 100.4C190.74 102.04 192.62 105.44 194.72 104.26Z" fill="#001434"/>
<path d="M157.06 104.82C159.74 103.4 157.06 98.58 153.92 99.82C143.92 103.96 125.74 124.38 132.68 126.38C133.267 126.604 133.916 126.601 134.5 126.372C135.085 126.143 135.562 125.703 135.84 125.14C138.42 119.24 148.28 109.48 157.06 104.82Z" fill="#001434"/>
<path d="M366.52 64.6C361.58 63.86 354.3 65.48 346.52 68.4C345 59.68 353.12 57.64 356.3 50.24C357.336 47.788 357.86 45.1498 357.84 42.4876C357.82 39.8256 357.254 37.1958 356.18 34.76C355.93 34.174 355.458 33.7108 354.868 33.4726C354.278 33.2346 353.616 33.2408 353.03 33.49C352.444 33.7394 351.98 34.2114 351.742 34.802C351.504 35.3928 351.51 36.054 351.76 36.64C358.46 52.76 337.32 56.64 342.02 70.18C338.96 71.46 335.88 72.88 332.84 74.4C331.886 72.8154 330.412 71.6104 328.668 70.9906C326.924 70.3706 325.02 70.374 323.28 71C319.28 72.04 319.98 76.84 322.84 76.06C326.06 75.18 326.84 75.44 328.4 76.7C321.672 80.2666 315.284 84.4442 309.32 89.18C307.66 87.5 308.02 86 308.74 83.54C311.66 73.66 303.34 74.44 297.94 69.76C295.4 67.54 307.82 53.4 303.94 51.3C303.68 51.1186 303.388 50.9906 303.08 50.9234C302.77 50.8564 302.45 50.8514 302.14 50.9092C301.828 50.967 301.532 51.086 301.268 51.2596C301.004 51.4332 300.776 51.6578 300.6 51.92C286.74 73.26 292.86 72.62 304.38 78.6C305.04 82.34 300.86 88.4 305.68 92.4C294.7 109.06 314.64 105 288.82 129.6C279.98 120.42 264.92 128.2 267.56 139.96C260.838 137.254 253.62 136 246.38 136.28C257.48 87 207.78 26.48 162 52.32C159.26 53.86 157.3 56.12 153.78 57C150.773 57.536 147.7 57.5766 144.68 57.12C127.32 56.5 110.88 60.9 95.4801 80.2C73.8601 108.72 76.3601 142.2 53.6001 170.46C32.8001 196.34 23.4801 178.02 12.2801 181.32C9.08006 182.26 1.06006 185.68 0.280056 201.78C-0.418744 216.994 2.35312 232.168 8.38576 246.154C14.4185 260.138 23.5537 272.568 35.1001 282.5C49.2047 295.114 66.6879 303.33 85.4001 306.14C91.4001 338.44 121.82 345.74 152.24 336.54C175.5 352.82 204.94 344.3 219.98 320.54C227.5 309.16 225.98 293.3 231.78 281.62C238.2 269.02 254.34 261.78 263.26 258.26C280.18 251.56 279.4 239.78 268.98 233.36C262.84 230.86 253.08 229.46 250.2 223.5C256.68 216.96 262.32 211.2 266.2 206.7C275 222.9 285.16 241.48 295.52 249.62C312.82 263.24 343.64 253.76 345.78 230.32C347.58 210.8 338.82 194.7 329.92 177.04C321.92 161.04 329.08 151.66 319.42 143.72C332.52 121.94 350.22 137.52 350.62 112.54C350.84 99.86 351.5 97.64 361.72 97.1C381.84 96.02 388 68.3 366.52 64.6ZM334.9 78.72C337.98 77.16 341.12 75.7 344.16 74.42C346.012 76.9036 348.246 79.0774 350.78 80.86C344.44 92.06 311.14 130 301.34 143.48C300.72 142.58 300.04 141.6 299.34 140.58C310.08 130.34 321.74 103.12 335.12 94.18C339.18 91.42 335.3 81.62 334.9 78.72ZM308.62 96.32L309.54 95.38C311.312 96.4612 313.164 97.404 315.08 98.2C312.58 100.96 310.28 103.4 307.62 106.54C307.1 102.76 306.34 98.7 308.62 96.32ZM295.02 130.06C303.52 121.08 312.5 108.06 321.02 98.7C324.46 94.9 316.02 94.24 313.36 92.04C318.798 87.8978 324.562 84.2056 330.6 81C331.502 83.9698 332.132 87.0158 332.48 90.1C320.82 98.62 307.16 125.68 296.32 136.82C295.14 135.44 293.86 134.04 292.54 132.82L295.02 130.06ZM269.12 145.86C269.62 147.32 270.16 148.8 270.76 150.3C258.26 159.44 247.34 175.5 237.3 185.56C231.3 184.44 228.62 182.3 229.62 176.8C240.54 166.8 241.14 153.82 245.32 141.2C253.526 140.614 261.74 142.222 269.12 145.86ZM129.24 150.82C112.3 123.64 123.14 101.24 142.22 88.5C158.22 77.82 179.74 73.5 197.66 82.8C188.92 81.62 168.76 88.34 171.66 93.88C172.089 94.5066 172.723 94.9648 173.452 95.1764C174.182 95.388 174.962 95.3398 175.66 95.04C183.627 89.2962 193.476 86.7876 203.22 88.02C224.92 94.24 247.48 141.6 232.1 165.72C232.42 161.28 230.56 157.94 224.94 157.72C211.38 157.6 197.3 176.84 195.72 190.26C183.98 196.26 155.72 202.5 135.72 197.68C143.68 178.6 137.78 164.54 129.24 150.82ZM194.66 196.2C194.12 220.7 174.66 211.42 158.2 216.7C156.75 211.932 154.074 207.63 150.44 204.22C165.64 203.82 183.16 201.18 194.66 196.2ZM174.8 219.24C190.06 219.04 198.6 213.68 199.14 198.4C199.46 188.9 207.14 170.8 217.36 164.82C220.44 163 225.36 161.84 227.14 163.26C228.92 164.68 226.16 170.42 225.48 174.26C224.3 180.98 224.26 187.46 233.64 189.62C222.92 201.62 214.94 210.2 200.4 225.62C194.68 225.76 187.68 230.58 180.4 236.7C175.76 225.76 167.46 223.62 160.4 228.96C160.269 226.414 159.955 223.88 159.46 221.38C164.409 219.778 169.601 219.052 174.8 219.24ZM256 171.86C255.774 173.852 255.734 175.861 255.88 177.86C236.68 196.4 229.56 209.1 210.22 228.48C209.012 227.55 207.662 226.82 206.22 226.32C221.56 210.16 230.28 200.72 256 171.86ZM256.74 183.86C257.164 185.806 257.692 187.73 258.32 189.62C246.6 203.46 229.16 224.62 216.06 238.08C215.938 235.838 215.104 233.696 213.68 231.96C233.24 212.1 240.48 199.86 256.74 183.78V183.86ZM13.6601 246.36C0.120056 216.36 1.66006 189.12 13.6601 185.42C22.6401 182.68 35.3201 200.92 57.2401 173.42C80.2201 145.12 78.1001 111.08 99.2401 83.08C121.36 55 145.48 63.88 154.46 61.52C158.68 60.4 162.3 57.08 166.28 55.26C208.68 36.06 249.86 89.04 241.84 134.88C234.58 105.6 218.82 85.12 193.02 75.42C167.22 65.72 122.56 85.9 116.4 114.8C109.48 147.16 146 164.5 130.68 197.38C80.8001 198.52 72.6801 257.98 83.8201 301.22C63.5401 299.12 28.0001 278.32 13.6601 246.36ZM132.12 202.2C160.56 202.98 156.56 240.78 150.84 258.32C125.18 263.2 98.9601 282.78 89.4201 303.36C76.4401 260.36 86.2201 201 132.12 202.2ZM133.56 335C118 337 96.0001 331 91.8201 310.5C106.78 272.94 147.52 264.5 154.94 262.24C160.6 260.52 159.42 232.54 167.08 231.04C174.74 229.54 176.06 247.32 184.5 239.72C197.46 223.72 221.3 230.92 206.16 249.94C203.082 253.072 199.736 255.93 196.16 258.48C195.756 258.78 195.456 259.2 195.302 259.678C195.148 260.156 195.146 260.672 195.298 261.152C195.45 261.63 195.748 262.052 196.15 262.354C196.552 262.656 197.038 262.826 197.54 262.84C199.96 262.38 201.86 260.16 207.1 255.86C209.098 261.112 210.304 266.632 210.68 272.24C206.92 275.16 201.62 278.42 201.56 278.46C201.116 278.734 200.774 279.146 200.586 279.632C200.398 280.12 200.374 280.654 200.516 281.156C200.658 281.658 200.96 282.098 201.376 282.414C201.792 282.728 202.298 282.9 202.82 282.9C204.82 282.54 206.04 281.18 210.52 278.32C208.76 310.18 167.66 330.44 133.56 335ZM262.34 236.18C274.1 238.04 273.8 250.04 261.46 253.72C249.66 258.08 234.16 266.06 227.46 279.42C221.46 291.16 222.98 306.76 215.9 317.9C203 338.04 179.24 346.68 158.36 334.7C194.6 323.42 223.64 295.86 213.74 261.1C224.72 249.1 236.18 237.54 246.66 227C250 232.3 257 234.52 262.34 236.18ZM212 255.74C211.6 254.514 211.16 253.254 210.68 251.96C222.42 236.82 246.14 212.9 260.24 194.68C261.28 197.2 262.46 199.7 263.7 202.12C254.24 213.28 232 233.94 212 255.74ZM320.94 161.38C321.26 181.08 344.94 205.38 340.94 229.78C337.1 252.88 309.2 255.54 297.7 244.54C286.96 234.28 279.14 220.54 270.58 204.84C260.36 186.84 253.74 166.68 272.58 154.84C275.04 159.24 275.74 160.56 277.2 160.96C278.66 161.36 280.26 158.82 279.2 157.28C277.982 155.074 276.912 152.789 276 150.44C271.12 138.44 270.2 129.46 280 130.3C286 130.8 293.36 141.72 298.26 147.74C303.16 153.76 320.52 135.68 320.96 161.38H320.94ZM375.1 80.7C370.52 103.8 344.5 78.9 345.76 112.14C345.36 131.62 328.62 118.52 314.76 141.9C312.694 141.57 310.586 141.57 308.52 141.9C320.2 127.12 355.14 86.26 356.08 80.84C356.52 76.54 352.82 78.02 348.78 72.58C360.26 67.4 376.18 67.48 375.12 80.7H375.1Z" fill="#001434"/>
<path d="M178 113.98C189.4 113.06 198.74 116.66 188.9 127.04C185.66 130.46 189.2 132.9 191.92 130.76C198.84 125.36 198.66 119.42 197.02 115.48C194.22 109 182.48 108.08 176 109.74C171.86 110.82 172.36 114.44 178 113.98Z" fill="#001434"/>
<path d="M141.56 133.44C140.8 135.44 145.14 138.46 146.82 135.04C150.06 128.46 155.46 122.08 162.52 120.52C163.82 120.22 164.94 118.84 164.36 117.66C161.24 111.4 146 122.32 141.56 133.44Z" fill="#001434"/>
</svg>
