<svg width="362" height="381" viewBox="0 0 362 381" fill="none" xmlns="http://www.w3.org/2000/svg">
<path d="M345.6 328C332.56 299.1 298.92 298.26 278.16 301.74C240.56 308.06 234.64 331.18 234.74 339.16C234.74 345.62 240.74 356.04 255.4 358.04C256.952 359.29 258.78 360.15 260.732 360.55C262.682 360.95 264.702 360.878 266.62 360.34C270.62 363.48 277.2 364.18 279.34 361.18C290 366.4 290.52 358.42 290.52 358.42C292.988 358.554 295.462 358.502 297.92 358.26C294.42 361.92 294.34 367.16 302.88 368.16C327 370.96 358.34 356.24 345.6 328Z" fill="#001434"/>
<path d="M127.76 78.7601C109.14 83.3801 105.76 93.86 109.22 101.34C113.34 110 141 113.02 158.38 104.96C191 90 160.08 70.7801 127.76 78.7601Z" fill="#001434"/>
<path d="M297 218.98C297.614 218.982 298.206 218.752 298.66 218.34C311.64 205.84 316.02 200.82 308 194.78C302.58 191.26 306 186.78 314.76 175.4C316.76 173 312.98 169.78 311 172.28C291.82 195.36 304.28 196.28 307 200.62C307 201.8 305.82 205.4 295.3 214.74C294.944 215.08 294.698 215.518 294.594 215.998C294.49 216.478 294.532 216.98 294.714 217.436C294.898 217.892 295.214 218.282 295.62 218.558C296.028 218.834 296.508 218.98 297 218.98Z" fill="#001434"/>
<path d="M277.68 173.48C277.2 175.22 264.52 187.84 270.14 190.82C270.44 190.936 270.762 190.99 271.084 190.982C271.404 190.972 271.722 190.9 272.016 190.768C272.31 190.636 272.574 190.448 272.794 190.212C273.016 189.978 273.186 189.702 273.3 189.4C274.746 185.662 276.86 182.219 279.54 179.24C285.54 172.3 282.16 169.24 272.42 165.02C277.52 161.72 285.14 159.4 286.12 152.56C286.196 151.916 286.014 151.267 285.614 150.757C285.212 150.247 284.624 149.917 283.98 149.84C283.336 149.763 282.686 149.945 282.176 150.347C281.666 150.748 281.336 151.336 281.26 151.98C281.06 157.86 260.66 161.34 267.68 168.28C273.9 171 277.28 172.82 277.68 173.48Z" fill="#001434"/>
<path d="M239.88 117.54C248.38 115.12 252.22 110.16 248.9 102.76C266.62 97.18 248.14 85.66 261.14 83.22C261.45 83.1386 261.74 82.997 261.996 82.803C262.252 82.6092 262.466 82.367 262.628 82.0904C262.788 81.8136 262.894 81.5078 262.938 81.1904C262.982 80.8728 262.962 80.55 262.88 80.24C262.798 79.93 262.656 79.6392 262.464 79.384C262.27 79.1288 262.028 78.9144 261.75 78.7528C261.474 78.5912 261.168 78.4858 260.85 78.4424C260.532 78.399 260.21 78.4186 259.9 78.5C249.42 81.26 250.9 87.46 251.78 91.18C252.28 93.18 252.54 94.64 251.92 95.62C251.3 96.6 249.74 97.62 245.12 98.66C244.772 98.7316 244.444 98.8786 244.158 99.0902C243.872 99.302 243.636 99.5736 243.468 99.886C243.298 100.199 243.198 100.544 243.176 100.899C243.154 101.254 243.21 101.609 243.34 101.94C244.3 104.38 245.72 107.64 245.04 108.88C244.36 110.12 242.46 111.44 239.04 112.88C238.558 113.115 238.166 113.5 237.924 113.978C237.682 114.456 237.602 115 237.696 115.528C237.792 116.055 238.056 116.537 238.45 116.901C238.844 117.264 239.346 117.488 239.88 117.54Z" fill="#001434"/>
<path d="M327.5 210C328.124 210.002 328.724 209.766 329.18 209.34C337.18 201.66 340.92 196.06 334.68 189.86C329.62 185.86 339.04 183.86 335.72 179.86C335.244 179.42 334.614 179.186 333.966 179.208C333.318 179.231 332.704 179.508 332.26 179.98C325.92 186.82 328.26 190.32 331.16 193.34C334.82 196.92 332.44 198.96 325.82 205.86C325.498 206.202 325.282 206.63 325.196 207.092C325.11 207.554 325.158 208.032 325.336 208.468C325.512 208.904 325.81 209.278 326.194 209.55C326.578 209.822 327.03 209.978 327.5 210Z" fill="#001434"/>
<path d="M178.5 356.3C169.786 351.228 162.089 344.582 155.8 336.7C155.397 336.19 154.808 335.862 154.163 335.788C153.518 335.712 152.869 335.896 152.36 336.3C151.851 336.704 151.523 337.292 151.448 337.938C151.373 338.582 151.557 339.23 151.96 339.74C163.14 353.64 171.1 357 180.16 363.28C175.22 367.6 146.16 377.28 134.64 374.76C120.74 363.72 107.74 345.88 107.74 339.94C107.74 334.62 127.36 332.44 133.74 331.74C134.356 331.632 134.907 331.292 135.281 330.792C135.656 330.292 135.826 329.668 135.758 329.046C135.689 328.426 135.386 327.854 134.911 327.448C134.436 327.042 133.824 326.832 133.2 326.86C114.42 328.86 102.78 331.86 102.78 339.94C102.78 348.02 117.22 367.4 131.96 378.94C134.093 379.816 136.401 380.178 138.7 380C153.64 379.8 203.28 368 178.5 356.3Z" fill="#001434"/>
<path d="M3.45999 107.42C4.14159 107.34 4.83199 107.444 5.45999 107.72C5.54059 108.87 5.39799 110.024 5.03999 111.12C2.03999 122.68 11.84 118.88 15.66 120.94C15.52 124.04 15.5 126.94 20.88 130.58C21.4062 130.811 21.9964 130.85 22.5484 130.691C23.1006 130.533 23.5796 130.186 23.9026 129.711C24.2256 129.235 24.3722 128.662 24.317 128.091C24.2618 127.519 24.008 126.984 23.6 126.58C20.4 124.44 20.46 123.22 20.52 121.82C20.78 116.94 17.78 115.66 9.31999 114.98C10.64 109.26 12.06 102.4 3.31999 102.6C2.76719 102.729 2.27599 103.045 1.92959 103.495C1.58319 103.944 1.40279 104.5 1.41939 105.067C1.43579 105.635 1.64799 106.179 2.01999 106.608C2.39199 107.036 2.90079 107.323 3.45999 107.42Z" fill="#001434"/>
<path d="M112.86 36.7C115.86 39.12 117.1 40.12 113.82 44.7C113.631 44.9626 113.495 45.26 113.421 45.575C113.347 45.89 113.336 46.2166 113.388 46.536C113.44 46.8554 113.554 47.1614 113.724 47.4366C113.895 47.7118 114.117 47.9508 114.38 48.14C114.643 48.329 114.94 48.4646 115.255 48.5388C115.57 48.613 115.897 48.6244 116.216 48.5724C116.535 48.5204 116.842 48.406 117.117 48.2358C117.392 48.0654 117.631 47.8426 117.82 47.58C127.98 32.96 107.98 34.42 114.26 25.44C114.431 25.1676 114.546 24.864 114.599 24.5468C114.651 24.2294 114.64 23.905 114.565 23.5922C114.491 23.2792 114.355 22.9844 114.165 22.7248C113.975 22.4652 113.736 22.246 113.46 22.08C112.907 21.7452 112.245 21.6414 111.616 21.7912C110.987 21.9408 110.443 22.332 110.1 22.88C105.28 30.6 110.02 34.42 112.86 36.7Z" fill="#001434"/>
<path d="M44.16 88.68C45.5738 89.487 46.861 90.498 47.98 91.68C46.38 96.14 42.12 100.48 49.86 106.06C50.123 106.246 50.4202 106.377 50.7344 106.446C51.0488 106.516 51.3736 106.522 51.6902 106.464C52.007 106.406 52.3088 106.286 52.5784 106.11C52.8478 105.934 53.0796 105.707 53.26 105.44C55.5 100.84 47.54 102.02 51.44 96.04C52.3442 94.4894 52.878 92.7508 53 90.96C52.44 87.82 48.22 85.62 46.8 84.54C44.14 82.86 43.34 82.36 45.56 75.36C45.6314 74.7964 45.504 74.2256 45.1996 73.746C44.8952 73.2664 44.433 72.908 43.8926 72.7326C43.3524 72.5572 42.7678 72.5758 42.2398 72.7854C41.7116 72.9948 41.2732 73.382 41 73.88C38 83 39.48 85.7 44.16 88.68Z" fill="#001434"/>
<path d="M137.82 32C136.784 33.0644 135.979 34.3314 135.455 35.7218C134.932 37.112 134.701 38.5956 134.778 40.0792C134.855 41.5628 135.238 43.0144 135.902 44.343C136.567 45.6716 137.499 46.8486 138.64 47.8C141 50.5 142.2 52 141 54.82C140.735 55.414 140.717 56.0892 140.949 56.6968C141.182 57.3044 141.646 57.7948 142.24 58.06C142.834 58.3252 143.509 58.3436 144.117 58.111C144.725 57.8784 145.215 57.414 145.48 56.82C150.4 45.8 134.02 43.72 141.8 34.92C152.18 23.24 127.8 16.56 141.94 4.37998C142.433 3.95828 142.739 3.35791 142.79 2.71091C142.84 2.06391 142.632 1.42329 142.21 0.929985C141.788 0.436685 141.188 0.131104 140.541 0.0804644C139.894 0.0298244 139.253 0.238285 138.76 0.659985C130.76 7.47998 130.6 15.92 138.38 25.76C140.46 28.4 139.74 29.38 137.82 32Z" fill="#001434"/>
<path d="M202 87.02C202.02 87.669 202.298 88.2834 202.77 88.7292C203.242 89.175 203.87 89.4162 204.52 89.4C209.28 88.86 205.7 79.6 205.46 78.4C215.46 75.72 218.66 77.14 211.96 65.64C213.284 64.785 214.766 64.2068 216.32 63.94C216.946 63.7756 217.48 63.3692 217.808 62.8104C218.134 62.2514 218.224 61.5858 218.06 60.96C217.896 60.334 217.49 59.7992 216.93 59.4728C216.372 59.1464 215.706 59.0556 215.08 59.22C205.58 61.64 205.68 65.88 209.92 72.22C204.58 74.4 197.22 72.74 200.04 78.54C200.58 79.38 201.86 81.36 202 87.02Z" fill="#001434"/>
<path d="M164.26 46.3401C163.98 46.8695 163.904 47.4837 164.048 48.0655C164.191 48.6473 164.543 49.1559 165.038 49.4945C165.532 49.8331 166.134 49.9781 166.728 49.9017C167.322 49.8251 167.868 49.5327 168.26 49.0801C178.06 34.8601 160.96 33.2001 171.64 24.2801C174.04 22.2801 170.68 18.4801 168.36 20.6601C154.62 33.1001 172.08 35.0201 164.26 46.3401Z" fill="#001434"/>
<path d="M138.54 336.6C129.34 337.44 117.66 338.18 116.04 341.9C111.76 347.56 132.84 366.88 138.54 367.6C141.14 368.92 167.04 366.08 164.12 359.02C163.954 358.744 163.735 358.506 163.475 358.316C163.216 358.126 162.921 357.99 162.608 357.916C162.295 357.84 161.971 357.83 161.653 357.882C161.336 357.934 161.032 358.048 160.76 358.22C154.262 361.99 146.726 363.574 139.26 362.74C135.26 362.18 122.34 349 120.34 344.36C122.98 342.36 133.9 341.94 138.94 341.46C139.566 341.384 140.139 341.068 140.538 340.58C140.937 340.09 141.131 339.466 141.079 338.838C141.027 338.208 140.734 337.624 140.26 337.208C139.787 336.79 139.17 336.572 138.54 336.6Z" fill="#001434"/>
<path d="M301.56 323.38C308.28 324.96 314.68 321.8 315.94 314.52C315.998 314.2 315.992 313.874 315.922 313.556C315.852 313.24 315.72 312.94 315.536 312.674C315.35 312.408 315.112 312.182 314.838 312.008C314.566 311.834 314.26 311.716 313.94 311.66C310.26 311.06 311.16 316.96 308.66 317.9C306.746 318.902 304.526 319.144 302.44 318.58C301.804 318.464 301.146 318.604 300.614 318.972C300.082 319.34 299.716 319.904 299.6 320.54C299.484 321.176 299.624 321.834 299.992 322.366C300.36 322.898 300.924 323.264 301.56 323.38Z" fill="#001434"/>
<path d="M177.8 301.06C181.62 300.26 185.58 298.64 189.58 297.4C189.94 297.4 198.92 301.4 198.98 301.06C199.536 301.044 200.07 300.838 200.494 300.48C200.918 300.12 201.208 299.628 201.318 299.084C201.426 298.538 201.348 297.972 201.094 297.478C200.84 296.984 200.426 296.59 199.92 296.36L196.8 295.08C200.02 293.3 208.54 294.2 208 290.08C207.95 289.766 207.836 289.466 207.67 289.194C207.502 288.924 207.282 288.69 207.024 288.504C206.766 288.318 206.474 288.184 206.164 288.112C205.854 288.04 205.534 288.028 205.22 288.08C199.964 289.048 194.792 290.44 189.76 292.24L181.18 288.7C180.581 288.454 179.908 288.454 179.31 288.704C178.711 288.954 178.237 289.43 177.99 290.03C177.743 290.63 177.745 291.302 177.994 291.9C178.244 292.498 178.721 292.974 179.32 293.22L182.64 294.6C180.76 295.22 178.9 295.82 177.12 296.34C176.598 296.534 176.158 296.902 175.874 297.382C175.59 297.86 175.478 298.422 175.558 298.974C175.637 299.526 175.903 300.034 176.311 300.412C176.719 300.792 177.244 301.02 177.8 301.06Z" fill="#001434"/>
<path d="M88.86 289.8C78.4 298.28 66.86 291.7 66.42 291.42C65.8632 291.088 65.1972 290.992 64.569 291.152C63.9408 291.31 63.4016 291.712 63.07 292.27C62.7386 292.826 62.6418 293.492 62.8012 294.12C62.9606 294.75 63.3632 295.288 63.92 295.62C67.9456 297.776 72.434 298.922 77 298.96C79.36 299.46 95.4 295.84 92.26 290.16C91.8506 289.67 91.2672 289.36 90.6328 289.292C89.9986 289.226 89.3628 289.408 88.86 289.8Z" fill="#001434"/>
<path d="M294.44 338C296.812 338.018 299.178 337.784 301.5 337.3C304.02 341.62 301.2 342.28 297.12 342.06C296.8 342.016 296.476 342.034 296.164 342.116C295.852 342.196 295.558 342.34 295.302 342.534C295.046 342.73 294.83 342.974 294.668 343.252C294.506 343.532 294.402 343.84 294.36 344.16C294.36 349.6 305.02 346.62 306.36 343.42C307.914 343.734 309.524 343.63 311.026 343.116C312.526 342.604 313.864 341.7 314.9 340.5C316.9 338.06 313.08 334.9 311.12 337.4C310.44 338.2 308.3 339.4 307.12 338.46C306.904 337.47 306.554 336.516 306.08 335.62C308.72 334.22 312.24 329.72 308.44 327.94C308.136 327.84 307.814 327.802 307.494 327.826C307.174 327.85 306.862 327.936 306.576 328.082C306.29 328.226 306.036 328.426 305.828 328.67C305.618 328.914 305.46 329.196 305.36 329.5C304.58 331.78 300.6 333.1 294.4 333.1C293.788 333.16 293.222 333.446 292.812 333.904C292.4 334.36 292.176 334.954 292.18 335.568C292.186 336.182 292.42 336.772 292.838 337.222C293.256 337.672 293.828 337.95 294.44 338Z" fill="#001434"/>
<path d="M269.68 330.36C275.28 333.88 285.98 333.78 289.68 327.42C289.966 326.86 290.026 326.212 289.85 325.61C289.674 325.008 289.274 324.494 288.732 324.178C288.19 323.86 287.546 323.762 286.934 323.904C286.322 324.046 285.788 324.416 285.44 324.94C283.32 328.58 275.88 328.44 272.38 326.22C271.832 325.862 271.162 325.736 270.522 325.872C269.88 326.006 269.318 326.39 268.96 326.94C268.602 327.488 268.476 328.158 268.612 328.8C268.746 329.44 269.132 330.002 269.68 330.36Z" fill="#001434"/>
<path d="M338.08 287.46C365.66 218.88 358.08 220.52 285.72 236.78C279.116 217.774 265.966 201.738 248.62 191.54C269.46 152.24 225.52 108.2 183.18 96.76C185 87.78 179 80 169 78.62C165.2 69.9 153.38 66.36 145.24 71.04C134.56 58.36 120.84 57.86 111 64.74L85.58 35.56C85.378 35.2874 85.1218 35.0596 84.8276 34.891C84.5332 34.7222 84.2072 34.616 83.87 34.5794C83.5326 34.5426 83.1914 34.5762 82.8676 34.6776C82.544 34.7792 82.2448 34.9466 81.9888 35.1692C81.733 35.392 81.5258 35.6652 81.3806 35.9718C81.2354 36.2784 81.1552 36.6118 81.1448 36.9508C81.1346 37.29 81.1948 37.6276 81.3212 37.9424C81.4478 38.2572 81.638 38.5424 81.88 38.78L107.42 68.12C106.257 69.5526 105.313 71.15 104.62 72.86L61.6 49.72C61.3172 49.5086 60.9922 49.3606 60.647 49.2862C60.302 49.2116 59.9448 49.2122 59.5998 49.2878C59.255 49.3636 58.9304 49.5126 58.6484 49.725C58.3662 49.9374 58.133 50.2078 57.9648 50.5184C57.7966 50.8288 57.697 51.1718 57.6732 51.524C57.6492 51.8764 57.7014 52.2296 57.8262 52.56C57.951 52.8902 58.1454 53.1898 58.3962 53.4384C58.6472 53.6868 58.9486 53.8784 59.28 54L103.28 77.72C103.094 79.4926 103.148 81.282 103.44 83.04C90.6 87.64 89.44 94.62 89.74 98.2C42.16 106.62 3.74 164.2 38.76 198.76C17.48 212.06 -2.85994 236.2 0.76006 266.42C1.6748 275.66 5.2432 284.438 11.0346 291.694C16.8262 298.952 24.5936 304.378 33.4 307.32C33.4232 310.916 34.3696 314.444 36.1488 317.568C37.928 320.692 40.48 323.306 43.56 325.16C29.9484 329.492 16.5936 334.594 3.56 340.44C3.2296 340.544 2.925 340.718 2.6662 340.95C2.4076 341.18 2.2006 341.464 2.0588 341.78C1.9172 342.096 1.844 342.438 1.844 342.786C1.8442 343.132 1.9176 343.476 2.0594 343.792C2.2014 344.108 2.4084 344.39 2.6672 344.622C2.9262 344.852 3.2308 345.026 3.5614 345.13C3.892 345.234 4.2408 345.268 4.5852 345.228C4.9298 345.19 5.262 345.078 5.56 344.9C23.96 336.5 36.34 332.9 50.96 327.8C53.5028 328.254 56.1008 328.308 58.66 327.96C59.46 329.68 59.4 332.28 61.18 333.38C66.5692 336.44 72.6252 338.136 78.82 338.32C94.66 338.06 101 325.88 103.44 311.68C112.3 308.68 118.1 306 125.88 302.88C125.88 304.14 126.14 305.7 127.42 306.28C133.68 309.26 142.2 314.66 151.42 319.98C179 335.72 204.08 356.64 227 341.34C230.7 350.76 239.4 357.44 252.02 360.18C254.36 362.18 260.9 363.4 265.66 362.68C267.588 364.042 269.848 364.862 272.2 365.054C274.552 365.248 276.914 364.808 279.04 363.78C283.96 366.92 292.06 365.6 294.24 359.78C295.12 359.78 295.98 359.78 296.86 359.66C291.3 386.14 360.58 369.04 361.3 337.66C362.156 327.992 360.464 318.27 356.39 309.462C352.314 300.652 346.002 293.066 338.08 287.46ZM245.74 195.46C262.138 204.978 274.632 220.002 281 237.86C272.78 239.86 262.04 241.58 253.5 244.66C257.72 229.3 237.9 213.5 227.94 209.02C234.782 205.862 240.854 201.256 245.74 195.52V195.46ZM249.12 238.98C249.316 240.848 249.02 242.736 248.264 244.454C247.506 246.174 246.312 247.664 244.8 248.78C239.884 251.418 234.506 253.088 228.96 253.7C231.5 248.68 231.34 241.52 228.06 234.76C227.776 234.176 227.272 233.73 226.66 233.518C226.046 233.306 225.374 233.346 224.79 233.63C224.206 233.914 223.76 234.418 223.548 235.032C223.336 235.644 223.376 236.316 223.66 236.9C226.86 243.52 226.34 250.9 222.62 253.9C217.764 253.68 212.956 252.826 208.32 251.36C208.62 249.66 209.84 225.36 204.08 226.7C203.758 226.752 203.448 226.87 203.172 227.044C202.896 227.22 202.656 227.448 202.47 227.716C202.284 227.984 202.152 228.288 202.086 228.608C202.018 228.928 202.016 229.26 202.08 229.58C203.838 237.144 204.184 244.97 203.1 252.66C199.96 269.22 191.48 259.96 184.6 237.76C184.51 237.45 184.36 237.162 184.16 236.912C183.958 236.66 183.708 236.452 183.426 236.298C183.144 236.142 182.832 236.046 182.512 236.012C182.192 235.978 181.868 236.008 181.56 236.1C177.7 237.74 181.56 242.94 181.98 245.48C145.98 232.06 196.68 196.66 226.94 213.92C235.38 218 248.04 229.32 249.12 239.04V238.98ZM145.9 76.42C152.92 70.42 166.2 75.72 165.44 85.38C164.44 85.68 163.44 85.88 162.56 86.16C158.7 74.16 145.32 78.58 142.56 90.16C141.2 90.3 139.82 90.48 138.56 90.56C139.8 84 142.3 79.18 145.9 76.42ZM157.9 87.4C154.42 88.24 151.16 88.84 148.04 89.4C150.32 84 156.24 81.6 157.82 87.4H157.9ZM141.28 74C140.457 74.7806 139.695 75.623 139 76.52C136.247 74.1188 132.859 72.564 129.244 72.0424C125.628 71.5208 121.939 72.0548 118.62 73.58L114.16 68.46C121.64 63.16 133.2 64.16 141.28 74ZM119.12 89.02C117.757 88.6828 116.421 88.2484 115.12 87.72C115.86 74.56 129.26 74.28 136.44 80.84C136.08 81.64 135.72 82.5 135.4 83.4C128.22 79.06 120.04 81.08 119.12 89.02ZM134.06 88.32C133.9 89.08 133.74 89.86 133.6 90.68C130.367 90.708 127.137 90.4806 123.94 90C124.24 84.86 129.62 85.1 134.06 88.32ZM110.72 71.88L114.72 76.44C114.315 76.8224 113.934 77.2298 113.58 77.66L109 75.18C109.422 74.0074 110 72.8972 110.72 71.88ZM111.2 81.88C110.857 82.9086 110.61 83.9664 110.46 85.04C109.801 84.5468 109.179 84.0054 108.6 83.42C108.346 82.377 108.192 81.3122 108.14 80.24L111.2 81.88ZM105.76 87.42C119.42 100.42 150.32 94.98 168.34 89.54C170.68 88.84 170.34 85.74 170.34 83.84C190.22 91.28 172.82 114.76 143.84 115.3C110.6 118 76.52 98.7 105.76 87.5V87.42ZM43 202C50.26 206.9 59 208.7 65.66 206.76C66.68 213.52 70.26 223.98 75.66 229C68.114 234.158 61.374 240.406 55.66 247.54C44.66 237.76 23.36 235.72 6.98 246.32C12.02 226.8 27.42 211.3 43 202ZM40.84 316C34.44 306 40.3 292.64 53.22 294.98C53.092 295.982 53.0186 296.99 53 298C38.06 297.54 39.76 320.72 55.88 318.18C56.32 319.84 56.8 321.52 57.32 323.26C50.1 323.76 44.2 321.2 40.86 316H40.84ZM54.64 313.32C46.38 314.94 44.64 302.14 53.02 302.88C53.3056 306.382 53.8538 309.86 54.66 313.28L54.64 313.32ZM98.82 309.54C96.96 328.52 84.02 340 64.32 329.54C51.42 288 55.14 279.32 96.7 286C99.0162 293.604 99.7446 301.602 98.84 309.5L98.82 309.54ZM129.24 296.4C119.92 299.84 113.98 302.82 104.02 306.4C104.14 300.4 103.8 284.4 99 281.64C73.14 277.48 61.14 277.14 54.48 290.32C44.48 288.68 36.16 293.36 34 302.46C14.44 295.88 2.8 274 5.72 253.34C20.46 240.82 42.46 242.04 52.66 251.34C51.34 253.76 46.5 257.12 49.58 259.82C49.8438 260.004 50.1412 260.132 50.455 260.2C50.7688 260.268 51.0928 260.274 51.4088 260.216C51.7246 260.158 52.026 260.038 52.2956 259.864C52.5652 259.69 52.7978 259.464 52.98 259.2C72.46 230.58 98.98 215.2 132.86 227.2C155.82 233.04 176.86 274.18 142.86 256.5C142.249 249.44 138.966 242.88 133.68 238.16C133.216 237.706 132.591 237.456 131.942 237.464C131.293 237.47 130.674 237.736 130.22 238.2C129.767 238.664 129.516 239.29 129.523 239.938C129.531 240.588 129.796 241.206 130.26 241.66C139.22 250.18 141.42 262.7 131.7 270.28C131.7 267.44 128.06 251.4 122.7 254.1C122.167 254.468 121.801 255.032 121.681 255.668C121.562 256.306 121.698 256.964 122.06 257.5C125.391 261.948 127.036 267.434 126.7 272.98C119.98 275.4 110.7 274.76 100.02 268.54C99.4604 268.214 98.7942 268.124 98.1678 268.288C97.5414 268.454 97.0062 268.86 96.68 269.42C96.3538 269.98 96.2632 270.646 96.4284 271.272C96.5934 271.898 97.0004 272.434 97.56 272.76C114.12 282.66 137.56 281.82 142.48 261.82C153.22 267.82 166.8 268.34 165.28 254.38C164.1 243.46 151.94 228.64 134.4 222.58C114.68 215.76 96.52 217.06 80.12 226.3C75.08 223.24 70.84 211.14 70.28 204.64C71.866 203.522 73.1986 202.082 74.191 200.414C75.1834 198.746 75.8134 196.888 76.04 194.96C78.88 174.76 91.1 148.16 102.66 144C104.344 143.409 106.167 143.337 107.893 143.794C109.619 144.25 111.168 145.214 112.34 146.56C127.6 160.18 127.74 138.56 142.82 147.7C153.02 153.7 160.82 150.44 173.62 141.44C187.92 131.32 222.6 159.08 209.82 204.52C197.516 203.762 185.354 207.5 175.6 215.04C159.38 228.34 159.98 244.56 184.34 251.26C192.18 269.26 202.72 271.08 207.4 256.16C213.2 258.3 226.52 260.06 234.98 257.62C232.662 260.442 230.594 263.46 228.8 266.64C200.58 274.32 137 287.02 129.26 296.36L129.24 296.4ZM225.5 336.22C221.02 340.052 215.272 342.078 209.38 341.9C191.1 341.34 151.9 313.08 130.8 302.5C138.98 289.58 198.16 280.92 225.68 272.62C221.46 281.14 216.96 293.04 212.82 303.36C211.04 302.46 210.82 303.56 196.12 308.98C195.51 309.202 195.014 309.658 194.74 310.248C194.466 310.836 194.438 311.51 194.66 312.12C194.882 312.73 195.338 313.226 195.928 313.5C196.516 313.774 197.19 313.802 197.8 313.58C203.34 311.58 205.18 310.72 210.72 308.56C208.44 314.16 205.94 320.12 203.06 326.56C202.794 327.152 202.776 327.824 203.006 328.43C203.236 329.036 203.698 329.524 204.29 329.79C204.882 330.056 205.554 330.074 206.16 329.844C206.766 329.614 207.254 329.152 207.52 328.56C222.38 297.08 229.06 253.5 262.48 247.16C287.46 242.42 344.22 226.66 346.48 234.98C350.98 240.22 345 256.6 333.84 284.88C304 264.58 219.46 279.24 225.52 336.18L225.5 336.22ZM356.4 337.34C355.06 365.58 292.72 377.54 302.4 359.18C320.22 356.58 336.94 346.98 337.46 329.46C337.84 316.98 327.92 302.78 305.3 300.62C293.48 286.86 283.3 289.78 279.14 307.34C274.18 308.02 270.74 309.8 266.68 306.88C253.56 298.7 248.68 309.98 243.26 328.7C243.09 329.326 243.176 329.994 243.498 330.556C243.822 331.118 244.354 331.53 244.98 331.7C245.606 331.87 246.274 331.784 246.836 331.462C247.398 331.138 247.81 330.606 247.98 329.98C252.18 314.48 255.82 310.14 258.16 309.22C261.5 307.88 266.16 313.62 270 313.36C277.752 313.036 285.38 311.314 292.52 308.28C292.816 308.16 293.086 307.982 293.314 307.756C293.542 307.53 293.722 307.262 293.844 306.966C293.968 306.67 294.03 306.352 294.03 306.032C294.028 305.712 293.964 305.396 293.84 305.1C291.84 301.54 287.56 305.62 284.62 305.9C288.52 293.58 293.64 294.64 302.22 304.54C302.648 305.036 303.248 305.35 303.9 305.42C348.04 309.8 338.96 354.54 294.34 355C293.82 353.18 291.5 347.12 288.34 349.48C288.08 349.672 287.862 349.912 287.698 350.19C287.534 350.466 287.428 350.774 287.384 351.092C287.342 351.412 287.364 351.736 287.448 352.046C287.534 352.358 287.68 352.648 287.88 352.9C289 354.36 290.66 357.08 289.26 358.9C288.34 359.754 287.192 360.32 285.956 360.528C284.72 360.738 283.45 360.582 282.3 360.08C281.34 359.672 280.562 358.924 280.116 357.98C279.67 357.036 279.586 355.962 279.88 354.96C279.934 354.644 279.926 354.322 279.854 354.01C279.782 353.698 279.65 353.404 279.464 353.142C279.278 352.882 279.042 352.662 278.77 352.492C278.498 352.324 278.196 352.21 277.88 352.16C273.88 351.8 274.74 357.7 275.66 359.86C270.34 361.12 266.54 358.68 266.06 354.66C266.084 354.338 266.044 354.016 265.94 353.71C265.838 353.404 265.674 353.122 265.458 352.882C265.244 352.64 264.982 352.446 264.69 352.308C264.4 352.17 264.082 352.092 263.76 352.08C260.58 351.96 260.86 355.92 261.76 358.08C247 358.84 251.02 340.74 263.4 341.44C264.048 341.486 264.686 341.272 265.176 340.846C265.664 340.42 265.964 339.818 266.01 339.17C266.056 338.522 265.842 337.884 265.416 337.394C264.99 336.906 264.388 336.606 263.74 336.56C254.64 335.5 245.44 345 247.56 353.98C210.78 340.22 238.2 293.68 265.04 286.92C322.16 269.1 357.74 294.64 356.42 337.3L356.4 337.34Z" fill="#001434"/>
<path d="M193.64 318.48C181.98 315.64 164.32 302.94 152.8 298.48C152.205 298.314 151.569 298.376 151.018 298.658C150.467 298.938 150.042 299.416 149.828 299.996C149.614 300.576 149.626 301.214 149.861 301.786C150.097 302.358 150.539 302.82 151.1 303.08C157.96 304.4 192.5 329.08 195.42 321.42C195.498 321.11 195.514 320.788 195.466 320.472C195.418 320.156 195.308 319.852 195.142 319.58C194.978 319.306 194.76 319.068 194.502 318.88C194.244 318.69 193.95 318.554 193.64 318.48Z" fill="#001434"/>
<path d="M156.78 171.6C159.32 171.6 174.38 159.28 168.78 155.6C168.191 155.326 167.518 155.297 166.907 155.518C166.296 155.739 165.798 156.193 165.52 156.78C163.273 161.138 159.796 164.74 155.52 167.14C155.106 167.434 154.793 167.849 154.625 168.328C154.456 168.806 154.439 169.326 154.577 169.814C154.715 170.303 155.001 170.737 155.395 171.056C155.79 171.376 156.273 171.566 156.78 171.6Z" fill="#001434"/>
<path d="M170.5 192C176.26 199.48 186.76 200.8 188.98 201C189.628 201.032 190.26 200.806 190.74 200.37C191.22 199.936 191.508 199.328 191.54 198.68C191.572 198.032 191.346 197.4 190.91 196.92C190.476 196.44 189.868 196.152 189.22 196.12C187.74 195.952 186.274 195.664 184.84 195.26C197.76 194.24 208.54 175.72 202.66 168.08C194.78 157.5 170.22 165.54 167.52 178.68C166.22 184.36 167.3 189 170.5 192ZM187.46 168.5C205.46 164.9 200.52 183.02 188.9 188.9C188.548 185.496 187.486 182.204 185.78 179.238C184.074 176.271 181.764 173.696 179 171.68C181.614 170.141 184.478 169.072 187.46 168.52V168.5Z" fill="#001434"/>
<path d="M160.68 201.06C154.998 200.638 149.285 200.994 143.7 202.12C143.113 202.298 142.614 202.688 142.3 203.214C141.986 203.74 141.879 204.366 142.002 204.966C142.125 205.568 142.467 206.1 142.963 206.462C143.458 206.824 144.071 206.986 144.68 206.92C149.857 205.876 155.153 205.546 160.42 205.94C161.067 205.974 161.701 205.75 162.183 205.318C162.665 204.884 162.956 204.278 162.99 203.63C163.025 202.982 162.801 202.348 162.367 201.866C161.934 201.384 161.327 201.094 160.68 201.06Z" fill="#001434"/>
<path d="M109.48 170.58C75.58 167.98 86.88 202.94 115.28 202.58C112.19 204.162 108.89 205.294 105.48 205.94C104.884 206.044 104.348 206.364 103.973 206.84C103.598 207.314 103.412 207.91 103.449 208.514C103.486 209.118 103.744 209.686 104.174 210.112C104.604 210.538 105.176 210.79 105.78 210.82C111.78 210.2 124.32 204.82 129.54 197.98C139.6 184.62 124.04 171.68 109.48 170.58ZM108.5 196.84C100.24 196.36 91.06 184.6 93.84 179.68C95.84 174.78 108.92 174.26 115.5 176.84C109.16 182.64 105.98 191.64 108.5 196.84Z" fill="#001434"/>
<path d="M136.44 168C131.656 166.478 127.463 163.508 124.44 159.5C124.259 159.234 124.028 159.006 123.759 158.83C123.49 158.654 123.189 158.533 122.873 158.473C122.557 158.414 122.232 158.417 121.918 158.484C121.603 158.55 121.305 158.678 121.04 158.86C117.04 161.14 125.98 170.3 135.86 172.86C136.469 172.87 137.06 172.654 137.519 172.254C137.978 171.853 138.272 171.297 138.344 170.692C138.416 170.087 138.262 169.477 137.91 168.98C137.558 168.482 137.034 168.133 136.44 168Z" fill="#001434"/>
<path d="M143.52 192.72C142.4 186.4 149.28 184.3 153.52 186.44C154.402 186.906 155.114 187.638 155.556 188.532C155.998 189.426 156.146 190.436 155.98 191.42C155.942 192.07 156.162 192.708 156.593 193.194C157.024 193.682 157.631 193.978 158.28 194.02C164.12 193.24 159.36 183.22 155.86 182.02C148.18 177.66 136.46 184.02 138.76 193.56C138.963 194.096 139.347 194.544 139.845 194.826C140.343 195.11 140.924 195.21 141.488 195.11C142.052 195.01 142.563 194.718 142.934 194.282C143.305 193.844 143.513 193.292 143.52 192.72Z" fill="#001434"/>
</svg>
